<?xml version="1.0" encoding="utf-8"?>
<!-- Generator: Adobe Illustrator 24.0.0, SVG Export Plug-In . SVG Version: 6.00 Build 0)  -->
<svg version="1.1" id="Layer_1" xmlns="http://www.w3.org/2000/svg" xmlns:xlink="http://www.w3.org/1999/xlink" x="0px" y="0px"
	 viewBox="0 0 256 256" style="enable-background:new 0 0 256 256;" xml:space="preserve">
<style type="text/css">
	.st0{fill:#382B73;}
	.st1{fill:#291B4A;}
	.st2{fill:#ED9ABC;}
	.st3{fill:#E54890;}
	.st4{fill:#D3D3D3;}
	.st5{fill:#EBE7F2;}
	.st6{fill:#F9B087;}
	.st7{fill:#FF8639;}
	.st8{fill:#65C1D6;}
	.st9{fill:#149CB2;}
</style>
<g>
	<g>
		<g>
			<g>
				<g>
					
						<ellipse transform="matrix(0.7071 -0.7071 0.7071 0.7071 -53.0193 128)" class="st0" cx="128" cy="128" rx="119.4" ry="119.4"/>
				</g>
			</g>
		</g>
	</g>
	<g>
		<g>
			<g>
				<g>
					<path class="st1" d="M48.029,193.952c0,5.369,4.368,9.737,9.737,9.737H125.5v8.568c-4.383,1.118-7.638,5.087-7.638,9.813
						c0,5.59,4.548,10.138,10.138,10.138s10.138-4.548,10.138-10.138c0-4.726-3.255-8.696-7.638-9.813v-8.568h67.733
						c5.369,0,9.737-4.368,9.737-9.737c0-5.212-4.12-9.469-9.272-9.714V71.242c5.153-0.245,9.272-4.502,9.272-9.714
						c0-5.369-4.368-9.737-9.737-9.737H57.767c-5.369,0-9.737,4.368-9.737,9.737c0,5.212,4.12,9.469,9.272,9.714v112.996
						C52.149,184.483,48.029,188.74,48.029,193.952z M133.138,222.071c0,2.833-2.305,5.138-5.138,5.138s-5.138-2.305-5.138-5.138
						s2.305-5.138,5.138-5.138S133.138,219.238,133.138,222.071z M53.029,61.528c0-2.612,2.125-4.737,4.737-4.737h140.467
						c2.612,0,4.737,2.125,4.737,4.737s-2.125,4.737-4.737,4.737H57.767C55.154,66.266,53.029,64.141,53.029,61.528z
						 M193.698,71.266v112.949H62.302V71.266H193.698z M57.767,189.214h140.467c2.612,0,4.737,2.125,4.737,4.737
						s-2.125,4.737-4.737,4.737H57.767c-2.612,0-4.737-2.125-4.737-4.737S55.154,189.214,57.767,189.214z"/>
				</g>
			</g>
		</g>
		<g>
			<g>
				<g>
					<path class="st1" d="M153.471,104.373c0-4.273-1.063-8.302-2.93-11.842c-0.013-0.027-0.019-0.055-0.033-0.082
						c-0.011-0.021-0.026-0.037-0.038-0.057c-4.294-8.02-12.753-13.49-22.469-13.49c-14.045,0-25.471,11.426-25.471,25.47
						s11.426,25.471,25.471,25.471S153.471,118.417,153.471,104.373z M130.5,84.072c5.892,0.722,11.013,3.95,14.265,8.591
						L130.5,100.22V84.072z M130.5,105.878l16.604-8.797c0.869,2.269,1.366,4.721,1.366,7.292c0,10.44-7.861,19.063-17.971,20.302
						V105.878z M125.5,124.675c-10.11-1.239-17.971-9.862-17.971-20.302c0-10.439,7.861-19.063,17.971-20.302V124.675z"/>
				</g>
			</g>
		</g>
		<g>
			<g>
				<g>
					<path class="st1" d="M91.591,144.047c0-5.141-4.182-9.323-9.322-9.323s-9.322,4.182-9.322,9.323s4.182,9.323,9.322,9.323
						S91.591,149.188,91.591,144.047z M77.946,144.047c0-2.384,1.938-4.323,4.322-4.323s4.322,1.939,4.322,4.323
						s-1.938,4.323-4.322,4.323S77.946,146.431,77.946,144.047z"/>
				</g>
			</g>
		</g>
		<g>
			<g>
				<g>
					<path class="st1" d="M120.362,146.547c1.381,0,2.5-1.119,2.5-2.5s-1.119-2.5-2.5-2.5h-21.89c-1.381,0-2.5,1.119-2.5,2.5
						s1.119,2.5,2.5,2.5H120.362z"/>
				</g>
			</g>
		</g>
		<g>
			<g>
				<g>
					<path class="st1" d="M91.591,169.063c0-5.14-4.182-9.322-9.322-9.322s-9.322,4.182-9.322,9.322
						c0,5.141,4.182,9.323,9.322,9.323S91.591,174.204,91.591,169.063z M77.946,169.063c0-2.383,1.938-4.322,4.322-4.322
						s4.322,1.939,4.322,4.322c0,2.384-1.938,4.323-4.322,4.323S77.946,171.447,77.946,169.063z"/>
				</g>
			</g>
		</g>
		<g>
			<g>
				<g>
					<path class="st1" d="M120.362,171.563c1.381,0,2.5-1.119,2.5-2.5s-1.119-2.5-2.5-2.5h-21.89c-1.381,0-2.5,1.119-2.5,2.5
						s1.119,2.5,2.5,2.5H120.362z"/>
				</g>
			</g>
		</g>
		<g>
			<g>
				<g>
					<path class="st1" d="M153.477,144.047c0-5.141-4.182-9.323-9.322-9.323s-9.323,4.182-9.323,9.323s4.183,9.323,9.323,9.323
						S153.477,149.188,153.477,144.047z M139.831,144.047c0-2.384,1.939-4.323,4.323-4.323s4.322,1.939,4.322,4.323
						s-1.938,4.323-4.322,4.323S139.831,146.431,139.831,144.047z"/>
				</g>
			</g>
		</g>
		<g>
			<g>
				<g>
					<path class="st1" d="M182.247,146.547c1.381,0,2.5-1.119,2.5-2.5s-1.119-2.5-2.5-2.5h-21.89c-1.381,0-2.5,1.119-2.5,2.5
						s1.119,2.5,2.5,2.5H182.247z"/>
				</g>
			</g>
		</g>
		<g>
			<g>
				<g>
					<path class="st1" d="M153.477,169.063c0-5.14-4.182-9.322-9.322-9.322s-9.323,4.182-9.323,9.322
						c0,5.141,4.183,9.323,9.323,9.323S153.477,174.204,153.477,169.063z M139.831,169.063c0-2.383,1.939-4.322,4.323-4.322
						s4.322,1.939,4.322,4.322c0,2.384-1.938,4.323-4.322,4.323S139.831,171.447,139.831,169.063z"/>
				</g>
			</g>
		</g>
		<g>
			<g>
				<g>
					<path class="st1" d="M182.247,171.563c1.381,0,2.5-1.119,2.5-2.5s-1.119-2.5-2.5-2.5h-21.89c-1.381,0-2.5,1.119-2.5,2.5
						s1.119,2.5,2.5,2.5H182.247z"/>
				</g>
			</g>
		</g>
	</g>
	<g>
		<g>
			<g>
				<g>
					<g>
						<path class="st8" d="M198.233,67.266c5.369,0,9.737-4.368,9.737-9.737s-4.368-9.737-9.737-9.737H57.767
							c-5.369,0-9.737,4.368-9.737,9.737s4.368,9.737,9.737,9.737H198.233z M53.029,57.528c0-2.612,2.125-4.737,4.737-4.737h140.467
							c2.612,0,4.737,2.125,4.737,4.737s-2.125,4.737-4.737,4.737H57.767C55.154,62.266,53.029,60.141,53.029,57.528z"/>
					</g>
				</g>
			</g>
			<g>
				<g>
					<g>
						<path class="st8" d="M198.233,199.689c5.369,0,9.737-4.368,9.737-9.737s-4.368-9.737-9.737-9.737H57.767
							c-5.369,0-9.737,4.368-9.737,9.737s4.368,9.737,9.737,9.737H198.233z M53.029,189.952c0-2.612,2.125-4.737,4.737-4.737
							h140.467c2.612,0,4.737,2.125,4.737,4.737s-2.125,4.737-4.737,4.737H57.767C55.154,194.689,53.029,192.564,53.029,189.952z"/>
					</g>
				</g>
			</g>
			<g>
				<g>
					<g>
						<path class="st8" d="M198.698,182.714V64.766c0-1.381-1.119-2.5-2.5-2.5s-2.5,1.119-2.5,2.5v117.949
							c0,1.381,1.119,2.5,2.5,2.5S198.698,184.095,198.698,182.714z"/>
					</g>
				</g>
			</g>
			<g>
				<g>
					<g>
						<path class="st8" d="M62.302,182.714V64.766c0-1.381-1.119-2.5-2.5-2.5s-2.5,1.119-2.5,2.5v117.949c0,1.381,1.119,2.5,2.5,2.5
							S62.302,184.095,62.302,182.714z"/>
					</g>
				</g>
			</g>
			<g>
				<g>
					<g>
						<path class="st8" d="M130.5,210.433v-13.244c0-1.381-1.119-2.5-2.5-2.5s-2.5,1.119-2.5,2.5v13.244c0,1.381,1.119,2.5,2.5,2.5
							S130.5,211.813,130.5,210.433z"/>
					</g>
				</g>
			</g>
			<g>
				<g>
					<g>
						<path class="st8" d="M138.138,218.071c0-5.59-4.548-10.138-10.138-10.138s-10.138,4.548-10.138,10.138
							s4.548,10.138,10.138,10.138S138.138,223.661,138.138,218.071z M122.862,218.071c0-2.833,2.305-5.138,5.138-5.138
							s5.138,2.305,5.138,5.138s-2.305,5.138-5.138,5.138S122.862,220.904,122.862,218.071z"/>
					</g>
				</g>
			</g>
		</g>
		<g>
			<g>
				<g>
					<path class="st9" d="M62.302,65.766c-0.828,0-1.5,0.672-1.5,1.5v112.949c0,0.828,0.672,1.5,1.5,1.5h131.396
						c0.828,0,1.5-0.672,1.5-1.5V67.266c0-0.828-0.672-1.5-1.5-1.5H62.302z M193.698,180.214H62.302V67.266h131.396V180.214z"/>
					<path class="st9" d="M51.529,189.952c0,3.439,2.798,6.237,6.237,6.237h140.467c3.439,0,6.237-2.798,6.237-6.237
						s-2.798-6.237-6.237-6.237H57.767C54.327,183.714,51.529,186.512,51.529,189.952z M202.971,189.952
						c0,2.612-2.125,4.737-4.737,4.737H57.767c-2.612,0-4.737-2.125-4.737-4.737s2.125-4.737,4.737-4.737h140.467
						C200.846,185.214,202.971,187.339,202.971,189.952z"/>
					<path class="st9" d="M121.362,218.071c0,3.66,2.978,6.638,6.638,6.638s6.638-2.978,6.638-6.638s-2.978-6.638-6.638-6.638
						S121.362,214.411,121.362,218.071z M133.138,218.071c0,2.833-2.305,5.138-5.138,5.138s-5.138-2.305-5.138-5.138
						s2.305-5.138,5.138-5.138S133.138,215.238,133.138,218.071z"/>
					<path class="st9" d="M48.029,189.952c0,5.369,4.368,9.737,9.737,9.737H125.5v8.568c-4.383,1.118-7.638,5.087-7.638,9.813
						c0,5.59,4.548,10.138,10.138,10.138s10.138-4.548,10.138-10.138c0-4.726-3.255-8.696-7.638-9.813v-8.568h67.733
						c5.369,0,9.737-4.368,9.737-9.737c0-5.212-4.12-9.469-9.272-9.714V67.242c5.153-0.245,9.272-4.502,9.272-9.714
						c0-5.369-4.368-9.737-9.737-9.737H57.767c-5.369,0-9.737,4.368-9.737,9.737c0,5.212,4.12,9.469,9.272,9.714v112.996
						C52.149,180.483,48.029,184.74,48.029,189.952z M57.373,65.744c-4.398-0.209-7.844-3.818-7.844-8.215
						c0-4.542,3.695-8.237,8.237-8.237h140.467c4.542,0,8.237,3.695,8.237,8.237c0,4.398-3.445,8.006-7.844,8.215
						c-0.8,0.038-1.429,0.698-1.429,1.498v112.996c0,0.801,0.629,1.46,1.429,1.498c4.398,0.209,7.844,3.818,7.844,8.215
						c0,4.542-3.695,8.237-8.237,8.237H130.5c-0.828,0-1.5,0.672-1.5,1.5v8.568c0,0.686,0.465,1.284,1.129,1.453
						c3.832,0.977,6.508,4.415,6.508,8.36c0,4.763-3.875,8.638-8.638,8.638s-8.638-3.875-8.638-8.638
						c0-3.945,2.676-7.383,6.508-8.36c0.664-0.17,1.129-0.768,1.129-1.453v-8.568c0-0.828-0.672-1.5-1.5-1.5H57.767
						c-4.542,0-8.237-3.695-8.237-8.237c0-4.398,3.445-8.006,7.844-8.215c0.8-0.038,1.429-0.698,1.429-1.498V67.242
						C58.802,66.441,58.173,65.782,57.373,65.744z"/>
					<path class="st9" d="M204.471,57.528c0-3.439-2.798-6.237-6.237-6.237H57.767c-3.439,0-6.237,2.798-6.237,6.237
						s2.798,6.237,6.237,6.237h140.467C201.673,63.766,204.471,60.968,204.471,57.528z M53.029,57.528
						c0-2.612,2.125-4.737,4.737-4.737h140.467c2.612,0,4.737,2.125,4.737,4.737s-2.125,4.737-4.737,4.737H57.767
						C55.154,62.266,53.029,60.141,53.029,57.528z"/>
				</g>
			</g>
		</g>
		<g>
			<g>
				<g>
					<g>
						<path class="st6" d="M153.471,100.373c0-14.044-11.426-25.47-25.471-25.47s-25.471,11.426-25.471,25.47
							s11.426,25.471,25.471,25.471S153.471,114.417,153.471,100.373z M107.529,100.373c0-11.287,9.184-20.47,20.471-20.47
							s20.471,9.183,20.471,20.47c0,11.288-9.184,20.471-20.471,20.471S107.529,111.661,107.529,100.373z"/>
					</g>
				</g>
			</g>
			<g>
				<g>
					<g>
						<path class="st6" d="M130.5,122.13v-20.252l18.294-9.693c1.221-0.646,1.686-2.159,1.039-3.379
							c-0.646-1.22-2.162-1.685-3.379-1.039L126.83,98.164c-0.818,0.433-1.33,1.283-1.33,2.209v21.757c0,1.381,1.119,2.5,2.5,2.5
							S130.5,123.511,130.5,122.13z"/>
					</g>
				</g>
			</g>
			<g>
				<g>
					<g>
						<path class="st6" d="M130.5,100.373v-22.97c0-1.381-1.119-2.5-2.5-2.5s-2.5,1.119-2.5,2.5v22.97c0,1.381,1.119,2.5,2.5,2.5
							S130.5,101.754,130.5,100.373z"/>
					</g>
				</g>
			</g>
		</g>
		<g>
			<g>
				<g>
					<g>
						<path class="st4" d="M91.591,140.047c0-5.141-4.182-9.323-9.322-9.323s-9.322,4.182-9.322,9.323s4.182,9.323,9.322,9.323
							S91.591,145.188,91.591,140.047z M77.946,140.047c0-2.384,1.938-4.323,4.322-4.323s4.322,1.939,4.322,4.323
							s-1.938,4.323-4.322,4.323S77.946,142.431,77.946,140.047z"/>
					</g>
				</g>
			</g>
			<g>
				<g>
					<g>
						<path class="st6" d="M120.362,142.547c1.381,0,2.5-1.119,2.5-2.5s-1.119-2.5-2.5-2.5h-21.89c-1.381,0-2.5,1.119-2.5,2.5
							s1.119,2.5,2.5,2.5H120.362z"/>
					</g>
				</g>
			</g>
			<g>
				<g>
					<g>
						<path class="st4" d="M91.591,165.063c0-5.14-4.182-9.322-9.322-9.322s-9.322,4.182-9.322,9.322
							c0,5.141,4.182,9.323,9.322,9.323S91.591,170.204,91.591,165.063z M77.946,165.063c0-2.383,1.938-4.322,4.322-4.322
							s4.322,1.939,4.322,4.322c0,2.384-1.938,4.323-4.322,4.323S77.946,167.447,77.946,165.063z"/>
					</g>
				</g>
			</g>
			<g>
				<g>
					<g>
						<path class="st6" d="M120.362,167.563c1.381,0,2.5-1.119,2.5-2.5s-1.119-2.5-2.5-2.5h-21.89c-1.381,0-2.5,1.119-2.5,2.5
							s1.119,2.5,2.5,2.5H120.362z"/>
					</g>
				</g>
			</g>
		</g>
		<g>
			<g>
				<g>
					<g>
						<path class="st4" d="M153.477,140.047c0-5.141-4.182-9.323-9.322-9.323s-9.323,4.182-9.323,9.323s4.183,9.323,9.323,9.323
							S153.477,145.188,153.477,140.047z M139.831,140.047c0-2.384,1.939-4.323,4.323-4.323s4.322,1.939,4.322,4.323
							s-1.938,4.323-4.322,4.323S139.831,142.431,139.831,140.047z"/>
					</g>
				</g>
			</g>
			<g>
				<g>
					<g>
						<path class="st6" d="M182.247,142.547c1.381,0,2.5-1.119,2.5-2.5s-1.119-2.5-2.5-2.5h-21.89c-1.381,0-2.5,1.119-2.5,2.5
							s1.119,2.5,2.5,2.5H182.247z"/>
					</g>
				</g>
			</g>
			<g>
				<g>
					<g>
						<path class="st4" d="M153.477,165.063c0-5.14-4.182-9.322-9.322-9.322s-9.323,4.182-9.323,9.322
							c0,5.141,4.183,9.323,9.323,9.323S153.477,170.204,153.477,165.063z M139.831,165.063c0-2.383,1.939-4.322,4.323-4.322
							s4.322,1.939,4.322,4.322c0,2.384-1.938,4.323-4.322,4.323S139.831,167.447,139.831,165.063z"/>
					</g>
				</g>
			</g>
			<g>
				<g>
					<g>
						<path class="st6" d="M182.247,167.563c1.381,0,2.5-1.119,2.5-2.5s-1.119-2.5-2.5-2.5h-21.89c-1.381,0-2.5,1.119-2.5,2.5
							s1.119,2.5,2.5,2.5H182.247z"/>
					</g>
				</g>
			</g>
		</g>
		<g>
			<g>
				<g>
					<g>
						<path class="st7" d="M129.727,97.505c0.237,0.143,0.505,0.215,0.774,0.215c0.241,0,0.482-0.058,0.702-0.175l14.265-7.558
							c0.38-0.201,0.655-0.556,0.756-0.974c0.101-0.418,0.017-0.859-0.23-1.212c-3.577-5.104-9.157-8.464-15.311-9.219
							c-0.061-0.007-0.122-0.011-0.183-0.011c-0.364,0-0.718,0.133-0.994,0.377c-0.322,0.285-0.506,0.694-0.506,1.123V96.22
							C129,96.746,129.276,97.234,129.727,97.505z M130.5,80.072c5.892,0.722,11.013,3.95,14.265,8.591L130.5,96.22V80.072z"/>
						<path class="st7" d="M125.5,78.572c-0.061,0-0.122,0.004-0.183,0.011c-10.996,1.348-19.288,10.715-19.288,21.79
							c0,11.075,8.292,20.443,19.288,21.791c0.061,0.007,0.122,0.011,0.183,0.011c0.364,0,0.718-0.133,0.994-0.377
							c0.322-0.285,0.506-0.694,0.506-1.123V80.072c0-0.43-0.184-0.839-0.506-1.123C126.218,78.704,125.864,78.572,125.5,78.572z
							 M125.5,120.675c-10.11-1.239-17.971-9.862-17.971-20.302c0-10.439,7.861-19.063,17.971-20.302V120.675z"/>
						<path class="st7" d="M153.471,100.373c0-14.044-11.426-25.47-25.471-25.47s-25.471,11.426-25.471,25.47
							s11.426,25.471,25.471,25.471S153.471,114.417,153.471,100.373z M104.029,100.373c0-13.217,10.753-23.97,23.971-23.97
							c13.218,0,23.971,10.753,23.971,23.97c0,13.218-10.753,23.971-23.971,23.971C114.783,124.344,104.029,113.591,104.029,100.373
							z"/>
						<path class="st7" d="M130.5,122.175c0.061,0,0.122-0.004,0.183-0.011c10.996-1.348,19.288-10.716,19.288-21.791
							c0-2.656-0.493-5.291-1.466-7.829c-0.154-0.401-0.472-0.717-0.874-0.868c-0.17-0.064-0.349-0.096-0.527-0.096
							c-0.242,0-0.484,0.059-0.702,0.175l-16.604,8.798c-0.491,0.26-0.798,0.77-0.798,1.325v18.797c0,0.43,0.184,0.839,0.506,1.123
							C129.782,122.042,130.136,122.175,130.5,122.175z M130.5,101.878l16.604-8.798c0.869,2.269,1.366,4.721,1.366,7.293
							c0,10.44-7.861,19.063-17.971,20.302V101.878z"/>
					</g>
				</g>
			</g>
			<g>
				<g>
					<g>
						<path class="st7" d="M120.362,142.547c1.381,0,2.5-1.119,2.5-2.5s-1.119-2.5-2.5-2.5h-21.89c-1.381,0-2.5,1.119-2.5,2.5
							s1.119,2.5,2.5,2.5H120.362z M97.473,140.047c0-0.551,0.449-1,1-1h21.89c0.551,0,1,0.449,1,1s-0.449,1-1,1h-21.89
							C97.921,141.047,97.473,140.598,97.473,140.047z"/>
					</g>
				</g>
			</g>
			<g>
				<g>
					<g>
						<path class="st7" d="M120.362,167.563c1.381,0,2.5-1.119,2.5-2.5s-1.119-2.5-2.5-2.5h-21.89c-1.381,0-2.5,1.119-2.5,2.5
							s1.119,2.5,2.5,2.5H120.362z M97.473,165.063c0-0.551,0.449-1,1-1h21.89c0.551,0,1,0.449,1,1s-0.449,1-1,1h-21.89
							C97.921,166.063,97.473,165.614,97.473,165.063z"/>
					</g>
				</g>
			</g>
			<g>
				<g>
					<g>
						<path class="st7" d="M182.247,142.547c1.381,0,2.5-1.119,2.5-2.5s-1.119-2.5-2.5-2.5h-21.89c-1.381,0-2.5,1.119-2.5,2.5
							s1.119,2.5,2.5,2.5H182.247z M159.357,140.047c0-0.551,0.449-1,1-1h21.89c0.551,0,1,0.449,1,1s-0.449,1-1,1h-21.89
							C159.806,141.047,159.357,140.598,159.357,140.047z"/>
					</g>
				</g>
			</g>
			<g>
				<g>
					<g>
						<path class="st7" d="M182.247,167.563c1.381,0,2.5-1.119,2.5-2.5s-1.119-2.5-2.5-2.5h-21.89c-1.381,0-2.5,1.119-2.5,2.5
							s1.119,2.5,2.5,2.5H182.247z M159.357,165.063c0-0.551,0.449-1,1-1h21.89c0.551,0,1,0.449,1,1s-0.449,1-1,1h-21.89
							C159.806,166.063,159.357,165.614,159.357,165.063z"/>
					</g>
				</g>
			</g>
		</g>
		<g>
			<g>
				<g>
					<g>
						<path class="st5" d="M88.091,140.047c0-3.211-2.612-5.823-5.822-5.823s-5.822,2.612-5.822,5.823s2.612,5.823,5.822,5.823
							S88.091,143.258,88.091,140.047z M77.946,140.047c0-2.384,1.938-4.323,4.322-4.323s4.322,1.939,4.322,4.323
							s-1.938,4.323-4.322,4.323S77.946,142.431,77.946,140.047z"/>
						<path class="st5" d="M91.591,140.047c0-5.141-4.182-9.323-9.322-9.323s-9.322,4.182-9.322,9.323s4.182,9.323,9.322,9.323
							S91.591,145.188,91.591,140.047z M74.446,140.047c0-4.313,3.509-7.823,7.822-7.823s7.822,3.509,7.822,7.823
							s-3.509,7.823-7.822,7.823S74.446,144.36,74.446,140.047z"/>
					</g>
				</g>
			</g>
			<g>
				<g>
					<g>
						<path class="st5" d="M91.591,165.063c0-5.14-4.182-9.322-9.322-9.322s-9.322,4.182-9.322,9.322
							c0,5.141,4.182,9.323,9.322,9.323S91.591,170.204,91.591,165.063z M74.446,165.063c0-4.313,3.509-7.822,7.822-7.822
							s7.822,3.509,7.822,7.822c0,4.313-3.509,7.823-7.822,7.823S74.446,169.376,74.446,165.063z"/>
						<path class="st5" d="M88.091,165.063c0-3.21-2.612-5.822-5.822-5.822s-5.822,2.612-5.822,5.822
							c0,3.211,2.612,5.823,5.822,5.823S88.091,168.274,88.091,165.063z M77.946,165.063c0-2.383,1.938-4.322,4.322-4.322
							s4.322,1.939,4.322,4.322c0,2.384-1.938,4.323-4.322,4.323S77.946,167.447,77.946,165.063z"/>
					</g>
				</g>
			</g>
			<g>
				<g>
					<g>
						<path class="st5" d="M153.477,140.047c0-5.141-4.182-9.323-9.322-9.323s-9.323,4.182-9.323,9.323s4.183,9.323,9.323,9.323
							S153.477,145.188,153.477,140.047z M136.331,140.047c0-4.313,3.51-7.823,7.823-7.823c4.313,0,7.822,3.509,7.822,7.823
							s-3.509,7.823-7.822,7.823C139.841,147.87,136.331,144.36,136.331,140.047z"/>
						<path class="st5" d="M149.977,140.047c0-3.211-2.612-5.823-5.822-5.823c-3.211,0-5.823,2.612-5.823,5.823
							s2.612,5.823,5.823,5.823C147.365,145.87,149.977,143.258,149.977,140.047z M139.831,140.047c0-2.384,1.939-4.323,4.323-4.323
							s4.322,1.939,4.322,4.323s-1.938,4.323-4.322,4.323S139.831,142.431,139.831,140.047z"/>
					</g>
				</g>
			</g>
			<g>
				<g>
					<g>
						<path class="st5" d="M153.477,165.063c0-5.14-4.182-9.322-9.322-9.322s-9.323,4.182-9.323,9.322
							c0,5.141,4.183,9.323,9.323,9.323S153.477,170.204,153.477,165.063z M136.331,165.063c0-4.313,3.51-7.822,7.823-7.822
							c4.313,0,7.822,3.509,7.822,7.822c0,4.313-3.509,7.823-7.822,7.823C139.841,172.886,136.331,169.376,136.331,165.063z"/>
						<path class="st5" d="M149.977,165.063c0-3.21-2.612-5.822-5.822-5.822c-3.211,0-5.823,2.612-5.823,5.822
							c0,3.211,2.612,5.823,5.823,5.823C147.365,170.886,149.977,168.274,149.977,165.063z M139.831,165.063
							c0-2.383,1.939-4.322,4.323-4.322s4.322,1.939,4.322,4.322c0,2.384-1.938,4.323-4.322,4.323S139.831,167.447,139.831,165.063z
							"/>
					</g>
				</g>
			</g>
		</g>
	</g>
</g>
</svg>
