<?xml version="1.0" encoding="UTF-8"?>
<!DOCTYPE svg PUBLIC "-//W3C//DTD SVG 1.1//EN" "http://www.w3.org/Graphics/SVG/1.1/DTD/svg11.dtd">
<!-- Creator: CorelDRAW -->
<svg xmlns="http://www.w3.org/2000/svg" xml:space="preserve" width="2048px" height="2048px" style="shape-rendering:geometricPrecision; text-rendering:geometricPrecision; image-rendering:optimizeQuality; fill-rule:evenodd; clip-rule:evenodd"
viewBox="0 0 2048 2048"
 xmlns:xlink="http://www.w3.org/1999/xlink">
 <defs>
  <style type="text/css">
   <![CDATA[
    .fil2 {fill:none}
    .fil0 {fill:#424242}
    .fil1 {fill:#424242;fill-rule:nonzero}
   ]]>
  </style>
 </defs>
 <g id="Layer_x0020_1">
  <metadata id="CorelCorpID_0Corel-Layer"/>
  <path class="fil0" d="M992 406.727l768.001 0 0 640.001 -768.001 0 0 -87.5505c20.9599,-4.78347 41.9445,-9.46064 62.8512,-14.4201 20.3669,-4.83189 38.517,-16.4008 50.2181,-33.9248 6.11811,-9.16064 10.2508,-19.4882 12.2162,-30.215l132.815 -77.5264c17.1354,-10.0016 22.9417,-32.0918 12.9413,-49.2272 -10.0016,-17.1366 -32.0941,-22.9441 -49.2296,-12.9413l-118.488 69.163c-3.71457,-3.71575 -7.81654,-7.08662 -12.2646,-10.0571 -17.589,-11.7449 -39.5918,-16.565 -60.3579,-11.9669 -1.24488,0.276378 -2.36575,0.643701 -3.58229,0.967324l-27.1193 6.64961 0 -388.951zm84.1642 187.99l0 -17.1685c3.46772,-0.196063 6.10512,-0.733465 7.86379,-1.5874 1.75866,-0.855119 3.29764,-2.29606 4.59213,-4.32284 1.26969,-2.02677 2.14843,-4.56733 2.6374,-7.6193 0.390945,-2.29606 0.561024,-6.27756 0.561024,-11.9433 0,-9.25513 0.43937,-15.7028 1.29449,-19.3666 0.855119,-3.6378 2.41772,-6.5693 4.66418,-8.79095 2.22284,-2.22284 5.49567,-3.9815 9.79371,-5.25119 2.9067,-0.878741 7.49764,-1.29449 13.7256,-1.29449l3.80906 0 0 17.0953c-5.29961,0 -8.6941,0.292914 -10.2083,0.903544 -1.48937,0.585827 -2.6126,1.49055 -3.32126,2.71063 -0.708662,1.22126 -1.0748,3.29764 -1.0748,6.25276 0,3.00355 -0.219685,8.71772 -0.634252,17.1189 -0.244488,4.71378 -0.855119,8.54764 -1.88032,11.4791 -1.00158,2.93032 -2.27126,5.34804 -3.81024,7.25316 -1.5626,1.90512 -3.93189,3.88229 -7.1315,5.93386 2.80866,1.63701 5.12835,3.51733 6.91182,5.69056 1.78228,2.17323 3.15,4.81181 4.10315,7.91339 0.951969,3.10158 1.5874,7.25316 1.88032,12.4547 0.317717,7.91221 0.487796,12.9673 0.487796,15.1654 0,3.15118 0.390945,5.34922 1.14803,6.57048 0.757087,1.24488 1.92992,2.19803 3.46772,2.83229 1.56378,0.635434 4.90867,0.976772 10.0618,0.976772l0 17.1685 -3.80906 0c-6.42402,0 -11.3563,-0.512599 -14.8004,-1.5378 -3.44292,-1.02638 -6.32481,-2.73544 -8.6941,-5.12953 -2.36929,-2.36811 -3.9567,-5.32323 -4.76221,-8.84056 -0.805512,-3.49252 -1.22126,-9.01182 -1.22126,-16.5579 0,-8.76733 -0.366142,-14.4815 -1.12323,-17.0953 -1.05,-3.81024 -2.6374,-6.54449 -4.76221,-8.1815 -2.1248,-1.66063 -5.39764,-2.58898 -9.76891,-2.83229zm78.2717 -23.4697l-18.2433 -3.29646c2.05158,-7.35119 5.5689,-12.7736 10.5756,-16.3146 5.03032,-3.51614 12.4547,-5.29961 22.3217,-5.29961 8.98701,0 15.6543,1.0748 20.0504,3.19961 4.37126,2.1248 7.47284,4.81063 9.25513,8.08347 1.78347,3.27284 2.68701,9.25631 2.68701,17.9988l-0.219685 23.4697c0,6.66733 0.316536,11.6008 0.976772,14.7756 0.634252,3.15 1.85551,6.5693 3.61418,10.1835l-19.904 0c-0.512599,-1.34291 -1.17165,-3.32126 -1.92874,-5.93504 -0.317717,-1.19646 -0.562205,-1.97717 -0.708662,-2.36811 -3.4441,3.34607 -7.1067,5.83701 -11.015,7.52127 -3.90709,1.66063 -8.08347,2.49095 -12.528,2.49095 -7.81536,0 -13.9937,-2.1248 -18.4878,-6.34961 -4.51772,-4.24843 -6.76418,-9.62127 -6.76418,-16.1185 0,-4.27323 1.0252,-8.10709 3.07677,-11.478 2.05158,-3.36969 4.93347,-5.93386 8.62087,-7.71733 3.68859,-1.78228 9.03662,-3.34607 15.9969,-4.68898 9.37796,-1.75866 15.8988,-3.41929 19.513,-4.93347l0 -2.00197c0,-3.88347 -0.95315,-6.6189 -2.85709,-8.27953 -1.90512,-1.63583 -5.49567,-2.46614 -10.7953,-2.46614 -3.58937,0 -6.37323,0.708662 -8.37638,2.1248 -2.00197,1.39134 -3.61418,3.85866 -4.86024,7.39961zm26.889 16.3134c-2.56418,0.855119 -6.64252,1.88032 -12.235,3.07796 -5.5689,1.19646 -9.20788,2.36811 -10.9417,3.49134 -2.6126,1.8815 -3.93189,4.22599 -3.93189,7.08308 0,2.83229 1.05,5.25 3.15118,7.30158 2.1,2.05158 4.76221,3.07796 8.01024,3.07796 3.63898,0 7.0819,-1.19764 10.3784,-3.56575 2.44252,-1.80709 4.02992,-4.02992 4.78701,-6.66733 0.537402,-1.70906 0.78189,-4.98189 0.78189,-9.79371l0 -4.00512zm62.6174 21.3945l0 -27.2551 -27.4736 0 0 -18.8291 27.4736 0 0 -27.2551 18.3165 0 0 27.2551 27.5481 0 0 18.8291 -27.5481 0 0 27.2551 -18.3165 0zm61.6902 15.0921l0 -104.891 20.0988 0 0 37.78c6.20315,-7.05827 13.5307,-10.5992 22.0288,-10.5992 9.25631,0 16.9004,3.37087 22.9807,10.0618 6.0567,6.69213 9.08505,16.3146 9.08505,28.8673 0,12.9673 -3.10158,22.9807 -9.27993,29.9894 -6.17835,7.00985 -13.676,10.5012 -22.4929,10.5012 -4.34646,0 -8.62087,-1.07362 -12.8457,-3.24803 -4.22481,-2.17323 -7.86379,-5.37284 -10.9158,-9.62127l0 11.1602 -18.6591 0zm19.9524 -39.6366c0,7.86379 1.24606,13.676 3.71221,17.4614 3.49252,5.34804 8.10827,8.01024 13.8969,8.01024 4.41969,0 8.20512,-1.90512 11.3315,-5.69056 3.12638,-3.78425 4.68898,-9.76772 4.68898,-17.9256 0,-8.6693 -1.5874,-14.9457 -4.73859,-18.7795 -3.1252,-3.83504 -7.15512,-5.76378 -12.0886,-5.76378 -4.81063,0 -8.81575,1.88032 -12.0154,5.61733 -3.19961,3.76063 -4.78701,9.42639 -4.78701,17.0705zm64.8166 70.4812c3.95551,-8.49804 6.76418,-15.0189 8.37638,-19.5366 1.61221,-4.54252 3.12638,-9.76891 4.4941,-15.6791 1.39134,-5.91024 2.41772,-11.5276 3.07677,-16.8508 0.683859,-5.29961 1.00158,-10.7705 1.00158,-16.3382 0,-11.3563 -1.19646,-22.102 -3.63898,-32.237 -2.44252,-10.135 -6.91182,-22.4197 -13.4563,-36.8776l13.676 0c7.20473,10.2579 12.7973,21.1252 16.7776,32.628 3.9815,11.478 5.98347,23.152 5.98347,34.9725 0,9.98741 -1.5874,20.6599 -4.73741,32.0658 -3.56575,12.7725 -9.47599,25.3984 -17.6575,37.8532l-13.8957 0zm163.285 -42.7866l-71.9233 -31.2851 0 -17.315 71.9233 -31.1126 0 20.3917 -50.1626 19.1717 50.1626 19.9028 0 20.2465zm6.64252 13.7244l25.9843 -108.457 15.0933 0 -26.2536 108.457 -14.824 0zm47.7201 -13.6512l0 -20.2453 50.2359 -19.7575 -50.2359 -19.5378 0 -20.0988 71.9965 31.1126 0 17.1685 -71.9965 31.3583z"/>
  <path class="fil0" d="M608.285 1299.28c4.05118,-22.0524 4.33111,-28.2709 22.0583,-28.2709 14.5417,0 14.6693,3.89528 23.1839,21.6614l54.9437 115.727 -24.7087 262.986c-1.40551,14.9539 7.01457,29.2807 17.2217,39.489 11.0185,11.0173 25.7764,17.1343 41.3599,17.1343 15.5835,0 30.3414,-6.11693 41.3575,-17.1343 11.0173,-11.0185 17.1354,-25.7764 17.1354,-41.3599l-0.836221 -5.51693 62.7414 -267.645 -61.9052 -234.208 0 -279.448 57.6603 57.6615c7.73505,7.73386 17.3634,16.1599 28.3689,18.5421 9.3756,2.03032 18.6484,0.94252 27.8244,-1.50709 44.1957,-11.798 90.3296,-21.3709 135.545,-32.0977 15.4429,-3.66378 29.3233,-12.2728 38.2028,-25.5709 8.83701,-13.2331 12.1618,-29.3776 9.04725,-45.0095 -3.11693,-15.652 -12.2752,-29.204 -25.5319,-38.0563 -13.2095,-8.82166 -29.3209,-12.1524 -44.9268,-9.07205 -1.03819,0.255118 -2.06811,0.6 -3.11811,0.857481l-102.55 25.1457 -7.99016 -8.38229c-9.51261,-9.97914 -18.8339,-20.1461 -28.161,-30.2977 -59.2973,-64.5449 -161.321,-178.904 -254.863,-178.904 -44.2618,0 -81.893,13.2579 -116.74,40.1303 -31.5603,24.3378 -56.6741,56.8737 -79.8001,89.0162 -35.2819,49.0347 -66.9591,101.143 -98.4225,152.694 -11.6221,19.0406 -23.204,38.1485 -35.1862,56.9634 -7.25079,11.3835 -15.965,25.5662 -24.9992,35.5347 -10.3878,11.4614 -15.841,26.5087 -15.0815,41.967 0.764174,15.5658 7.62638,29.9941 19.1705,40.4575 11.4602,10.3878 26.5087,15.8398 41.967,15.0803 15.5575,-0.764174 29.9788,-7.62048 40.441,-19.1551 1.34764,-1.48701 1.88504,-2.6811 2.89016,-4.38662l95.2678 -161.668 0 766.875c0,15.5835 6.11693,30.3414 17.1343,41.3599 11.0185,11.0173 25.7764,17.1343 41.3599,17.1343 15.5835,0 30.3414,-6.11693 41.3575,-17.1343 11.2866,-11.2866 15.887,-27.5445 17.2075,-43.0559l31.376 -368.536z"/>
  <path class="fil1" d="M630.343 278.603c41.0575,0 78.2327,16.6453 105.143,43.5555 26.9103,26.9103 43.5555,64.0855 43.5555,105.143 0,41.0575 -16.6453,78.2316 -43.5555,105.142 -26.9103,26.9103 -64.0855,43.5555 -105.143,43.5555 -41.0587,0 -78.2339,-16.6465 -105.142,-43.5555 -26.9103,-26.9103 -43.5555,-64.0843 -43.5555,-105.142 0,-41.0575 16.6453,-78.2327 43.5555,-105.143 26.9079,-26.9091 64.0831,-43.5555 105.142,-43.5555z"/>
  <path class="fil1" d="M1073.26 846.122c-7.62756,4.45158 -10.2012,14.2465 -5.74961,21.874 4.45158,7.62756 14.2465,10.2012 21.874,5.74961l150.634 -87.9272c7.62756,-4.45158 10.2012,-14.2465 5.74961,-21.874 -4.45158,-7.62756 -14.2465,-10.2012 -21.874,-5.74961l-150.634 87.9272z"/>
  <path class="fil1" d="M1807.96 420.011c17.6728,0 32.0008,-14.328 32.0008,-32.0008 0,-17.6728 -14.328,-32.0008 -32.0008,-32.0008l-864.003 0c-17.6728,0 -32.0008,14.328 -32.0008,32.0008 0,17.6728 14.328,32.0008 32.0008,32.0008l864.003 0z"/>
  <path class="fil1" d="M1807.96 1092.01c17.6728,0 32.0008,-14.328 32.0008,-32.0008 0,-17.6728 -14.328,-32.0008 -32.0008,-32.0008l-864.003 0c-17.6728,0 -32.0008,14.328 -32.0008,32.0008 0,17.6728 14.328,32.0008 32.0008,32.0008l864.003 0z"/>
 </g>
 <rect class="fil2" width="2048" height="2048"/>
</svg>
