<?xml version="1.0" encoding="utf-8"?>
<!-- Generator: Adobe Illustrator 24.0.0, SVG Export Plug-In . SVG Version: 6.00 Build 0)  -->
<svg version="1.1" id="Layer_1" xmlns="http://www.w3.org/2000/svg" xmlns:xlink="http://www.w3.org/1999/xlink" x="0px" y="0px"
	 viewBox="0 0 256 256" style="enable-background:new 0 0 256 256;" xml:space="preserve">
<style type="text/css">
	.st0{fill:#382B73;}
	.st1{fill:#291B4A;}
	.st2{fill:#ED9ABC;}
	.st3{fill:#E54890;}
	.st4{fill:#D3D3D3;}
	.st5{fill:#EBE7F2;}
	.st6{fill:#F9B087;}
	.st7{fill:#FF8639;}
	.st8{fill:#65C1D6;}
	.st9{fill:#149CB2;}
</style>
<g>
	<g>
		<g>
			<g>
				<g>
					
						<ellipse transform="matrix(0.7071 -0.7071 0.7071 0.7071 -53.0193 128)" class="st0" cx="128" cy="128" rx="119.4" ry="119.4"/>
				</g>
			</g>
		</g>
	</g>
	<g>
		<g>
			<g>
				<g>
					<path class="st1" d="M142.747,40.885h-27.422c-1.381,0-2.5,1.119-2.5,2.5v11.211H73.704c-1.381,0-2.5,1.119-2.5,2.5v20.712
						c-7.104,1.196-12.538,7.374-12.538,14.813c0,7.439,5.434,13.616,12.538,14.813v17.369c0,1.381,1.119,2.5,2.5,2.5h18.419v7.868
						c0,1.381,1.119,2.5,2.5,2.5h20.736c1.381,0,2.5-1.119,2.5-2.5v-7.868h7.641v31.336l-7.201-7.2c-0.976-0.977-2.56-0.977-3.535,0
						c-0.977,0.976-0.977,2.559,0,3.535l11.468,11.468c0.488,0.488,1.128,0.732,1.768,0.732s1.279-0.244,1.768-0.732l11.469-11.468
						c0.977-0.976,0.977-2.559,0-3.535c-0.977-0.977-2.559-0.977-3.535,0l-7.201,7.2v-31.336h7.641v7.868c0,1.381,1.119,2.5,2.5,2.5
						h20.736c1.381,0,2.5-1.119,2.5-2.5v-7.868h18.419c1.381,0,2.5-1.119,2.5-2.5v-17.369c7.104-1.196,12.538-7.374,12.538-14.813
						c0-7.439-5.434-13.617-12.538-14.813V57.097c0-1.381-1.119-2.5-2.5-2.5h-37.049V43.385
						C145.247,42.004,144.128,40.885,142.747,40.885z M117.825,45.885h22.422v22.423h-22.422V45.885z M63.666,92.622
						c0-5.535,4.503-10.039,10.038-10.039s10.038,4.503,10.038,10.039s-4.503,10.038-10.038,10.038S63.666,98.157,63.666,92.622z
						 M112.859,132.67H97.123v-15.736h15.736V132.67z M158.877,132.67h-15.736v-15.736h15.736V132.67z M192.334,92.622
						c0,5.535-4.503,10.038-10.038,10.038s-10.038-4.503-10.038-10.038s4.503-10.039,10.038-10.039S192.334,87.086,192.334,92.622z
						 M179.796,59.597v18.212c-7.104,1.196-12.538,7.374-12.538,14.813c0,7.439,5.434,13.616,12.538,14.813v14.869h-15.919v-7.868
						c0-1.381-1.119-2.5-2.5-2.5h-20.736c-1.381,0-2.5,1.119-2.5,2.5v7.868h-20.282v-7.868c0-1.381-1.119-2.5-2.5-2.5H94.623
						c-1.381,0-2.5,1.119-2.5,2.5v7.868H76.204v-14.869c7.104-1.196,12.538-7.374,12.538-14.813c0-7.439-5.434-13.617-12.538-14.813
						V59.597h36.621v11.211c0,1.381,1.119,2.5,2.5,2.5h27.422c1.381,0,2.5-1.119,2.5-2.5V59.597H179.796z"/>
				</g>
			</g>
		</g>
		<g>
			<g>
				<g>
					<path class="st1" d="M149.101,229.49c4.143,0,7.514-3.371,7.514-7.514v-42.201c0-4.144-3.371-7.514-7.514-7.514H106.9
						c-4.144,0-7.514,3.371-7.514,7.514v42.201c0,4.144,3.371,7.514,7.514,7.514H149.101z M104.386,221.976v-42.201
						c0-1.386,1.128-2.514,2.514-2.514h42.201c1.386,0,2.514,1.128,2.514,2.514v42.201c0,1.386-1.128,2.514-2.514,2.514H106.9
						C105.514,224.49,104.386,223.362,104.386,221.976z"/>
				</g>
			</g>
		</g>
		<g>
			<g>
				<g>
					<path class="st1" d="M128,190.87c1.381,0,2.5-1.119,2.5-2.5s-1.119-2.5-2.5-2.5h-12.015c-1.381,0-2.5,1.119-2.5,2.5
						s1.119,2.5,2.5,2.5H128z"/>
				</g>
			</g>
		</g>
		<g>
			<g>
				<g>
					<path class="st1" d="M140.015,203.376c1.381,0,2.5-1.119,2.5-2.5s-1.119-2.5-2.5-2.5h-24.03c-1.381,0-2.5,1.119-2.5,2.5
						s1.119,2.5,2.5,2.5H140.015z"/>
				</g>
			</g>
		</g>
		<g>
			<g>
				<g>
					<path class="st1" d="M140.015,215.881c1.381,0,2.5-1.119,2.5-2.5s-1.119-2.5-2.5-2.5h-24.03c-1.381,0-2.5,1.119-2.5,2.5
						s1.119,2.5,2.5,2.5H140.015z"/>
				</g>
			</g>
		</g>
	</g>
	<g>
		<g>
			<g>
				<g>
					<path class="st8" d="M76.204,76.083V55.597h39.121c1.381,0,2.5-1.119,2.5-2.5s-1.119-2.5-2.5-2.5H73.704
						c-1.381,0-2.5,1.119-2.5,2.5v22.986c0,1.381,1.119,2.5,2.5,2.5S76.204,77.464,76.204,76.083z"/>
				</g>
			</g>
		</g>
		<g>
			<g>
				<g>
					<g>
						<path class="st9" d="M76.204,76.083V55.597h39.121c1.381,0,2.5-1.119,2.5-2.5s-1.119-2.5-2.5-2.5H73.704
							c-1.381,0-2.5,1.119-2.5,2.5v22.986c0,1.381,1.119,2.5,2.5,2.5S76.204,77.464,76.204,76.083z M72.704,76.083V53.097
							c0-0.551,0.449-1,1-1h41.621c0.551,0,1,0.449,1,1s-0.449,1-1,1H76.204c-0.828,0-1.5,0.672-1.5,1.5v20.486c0,0.551-0.449,1-1,1
							S72.704,76.634,72.704,76.083z"/>
					</g>
				</g>
			</g>
		</g>
		<g>
			<g>
				<g>
					<path class="st8" d="M182.296,78.583c1.381,0,2.5-1.119,2.5-2.5V53.097c0-1.381-1.119-2.5-2.5-2.5h-39.549
						c-1.381,0-2.5,1.119-2.5,2.5s1.119,2.5,2.5,2.5h37.049v20.486C179.796,77.464,180.915,78.583,182.296,78.583z"/>
				</g>
			</g>
		</g>
		<g>
			<g>
				<g>
					<g>
						<path class="st9" d="M182.296,78.583c1.381,0,2.5-1.119,2.5-2.5V53.097c0-1.381-1.119-2.5-2.5-2.5h-39.549
							c-1.381,0-2.5,1.119-2.5,2.5s1.119,2.5,2.5,2.5h37.049v20.486C179.796,77.464,180.915,78.583,182.296,78.583z M142.747,54.097
							c-0.551,0-1-0.449-1-1s0.449-1,1-1h39.549c0.551,0,1,0.449,1,1v22.986c0,0.551-0.449,1-1,1s-1-0.449-1-1V55.597
							c0-0.828-0.672-1.5-1.5-1.5H142.747z"/>
					</g>
				</g>
			</g>
		</g>
		<g>
			<g>
				<g>
					<path class="st8" d="M73.704,98.66c-1.381,0-2.5,1.119-2.5,2.5v19.643c0,1.381,1.119,2.5,2.5,2.5h20.919
						c1.381,0,2.5-1.119,2.5-2.5s-1.119-2.5-2.5-2.5H76.204V101.16C76.204,99.779,75.085,98.66,73.704,98.66z"/>
				</g>
			</g>
		</g>
		<g>
			<g>
				<g>
					<g>
						<path class="st9" d="M73.704,98.66c-1.381,0-2.5,1.119-2.5,2.5v19.643c0,1.381,1.119,2.5,2.5,2.5h20.919
							c1.381,0,2.5-1.119,2.5-2.5s-1.119-2.5-2.5-2.5H76.204V101.16C76.204,99.779,75.085,98.66,73.704,98.66z M94.623,119.803
							c0.551,0,1,0.449,1,1s-0.449,1-1,1H73.704c-0.551,0-1-0.449-1-1V101.16c0-0.551,0.449-1,1-1s1,0.449,1,1v17.143
							c0,0.828,0.672,1.5,1.5,1.5H94.623z"/>
					</g>
				</g>
			</g>
		</g>
		<g>
			<g>
				<g>
					<path class="st8" d="M182.296,123.303c1.381,0,2.5-1.119,2.5-2.5V101.16c0-1.381-1.119-2.5-2.5-2.5s-2.5,1.119-2.5,2.5v17.143
						h-18.419c-1.381,0-2.5,1.119-2.5,2.5s1.119,2.5,2.5,2.5H182.296z"/>
				</g>
			</g>
		</g>
		<g>
			<g>
				<g>
					<g>
						<path class="st9" d="M182.296,123.303c1.381,0,2.5-1.119,2.5-2.5V101.16c0-1.381-1.119-2.5-2.5-2.5s-2.5,1.119-2.5,2.5v17.143
							h-18.419c-1.381,0-2.5,1.119-2.5,2.5s1.119,2.5,2.5,2.5H182.296z M160.377,120.803c0-0.551,0.449-1,1-1h18.419
							c0.828,0,1.5-0.672,1.5-1.5V101.16c0-0.551,0.449-1,1-1s1,0.449,1,1v19.643c0,0.551-0.449,1-1,1h-20.919
							C160.826,121.803,160.377,121.354,160.377,120.803z"/>
					</g>
				</g>
			</g>
		</g>
		<g>
			<g>
				<g>
					<path class="st8" d="M130.5,158.528v-37.725c0-1.381-1.119-2.5-2.5-2.5s-2.5,1.119-2.5,2.5v37.725c0,1.381,1.119,2.5,2.5,2.5
						S130.5,159.909,130.5,158.528z"/>
				</g>
			</g>
		</g>
		<g>
			<g>
				<g>
					<path class="st8" d="M128,163.174c0.64,0,1.279-0.244,1.768-0.732l11.469-11.468c0.977-0.976,0.977-2.559,0-3.535
						c-0.977-0.977-2.559-0.977-3.535,0l-9.701,9.7l-9.701-9.7c-0.976-0.977-2.56-0.977-3.535,0c-0.977,0.976-0.977,2.559,0,3.535
						l11.468,11.468C126.72,162.93,127.36,163.174,128,163.174z"/>
				</g>
			</g>
		</g>
		<g>
			<g>
				<g>
					<path class="st8" d="M140.641,123.303c1.381,0,2.5-1.119,2.5-2.5s-1.119-2.5-2.5-2.5h-25.282c-1.381,0-2.5,1.119-2.5,2.5
						s1.119,2.5,2.5,2.5H140.641z"/>
				</g>
			</g>
		</g>
		<g>
			<g>
				<g>
					<path class="st9" d="M140.641,123.303c1.381,0,2.5-1.119,2.5-2.5s-1.119-2.5-2.5-2.5h-25.282c-1.381,0-2.5,1.119-2.5,2.5
						s1.119,2.5,2.5,2.5H125.5v31.336l-7.201-7.2c-0.488-0.488-1.128-0.732-1.768-0.732s-1.28,0.244-1.768,0.732
						c-0.977,0.976-0.977,2.559,0,3.535l11.468,11.468c0.488,0.488,1.128,0.732,1.768,0.732s1.279-0.244,1.768-0.732l11.469-11.468
						c0.977-0.976,0.977-2.559,0-3.535c-0.488-0.488-1.128-0.732-1.768-0.732s-1.279,0.244-1.768,0.732l-7.201,7.2v-31.336H140.641z
						 M129.926,156.025c0.186,0.077,0.38,0.114,0.574,0.114c0.39,0,0.774-0.152,1.061-0.439l7.201-7.201
						c0.189-0.189,0.44-0.293,0.707-0.293s0.518,0.104,0.707,0.293c0.189,0.189,0.293,0.44,0.293,0.707s-0.104,0.518-0.293,0.707
						l-11.469,11.468c-0.189,0.189-0.44,0.293-0.707,0.293c-0.267,0-0.518-0.104-0.707-0.293l-11.469-11.469
						c-0.189-0.189-0.293-0.44-0.293-0.707s0.104-0.518,0.294-0.707c0.188-0.189,0.439-0.293,0.706-0.293s0.518,0.104,0.707,0.293
						l7.201,7.2c0.287,0.287,0.671,0.439,1.061,0.439c0.193,0,0.388-0.037,0.574-0.114c0.56-0.232,0.926-0.779,0.926-1.386v-31.336
						c0-0.828-0.672-1.5-1.5-1.5h-10.141c-0.551,0-1-0.449-1-1s0.449-1,1-1h25.282c0.551,0,1,0.449,1,1s-0.449,1-1,1H130.5
						c-0.828,0-1.5,0.672-1.5,1.5v31.336C129,155.246,129.365,155.793,129.926,156.025z"/>
				</g>
			</g>
		</g>
		<g>
			<g>
				<g>
					<path class="st2" d="M142.747,69.308c1.381,0,2.5-1.119,2.5-2.5V39.385c0-1.381-1.119-2.5-2.5-2.5h-27.422
						c-1.381,0-2.5,1.119-2.5,2.5v27.423c0,1.381,1.119,2.5,2.5,2.5H142.747z M117.825,41.885h22.422v22.423h-22.422V41.885z"/>
				</g>
			</g>
		</g>
		<g>
			<g>
				<g>
					<g>
						<path class="st2" d="M115.359,133.67c1.381,0,2.5-1.119,2.5-2.5v-20.736c0-1.381-1.119-2.5-2.5-2.5H94.623
							c-1.381,0-2.5,1.119-2.5,2.5v20.736c0,1.381,1.119,2.5,2.5,2.5H115.359z M97.123,112.935h15.736v15.736H97.123V112.935z"/>
					</g>
				</g>
			</g>
			<g>
				<g>
					<g>
						<path class="st2" d="M161.377,133.67c1.381,0,2.5-1.119,2.5-2.5v-20.736c0-1.381-1.119-2.5-2.5-2.5h-20.736
							c-1.381,0-2.5,1.119-2.5,2.5v20.736c0,1.381,1.119,2.5,2.5,2.5H161.377z M143.141,112.935h15.736v15.736h-15.736V112.935z"/>
					</g>
				</g>
			</g>
		</g>
		<g>
			<g>
				<g>
					<g>
						<path class="st2" d="M88.742,88.622c0-8.292-6.746-15.039-15.038-15.039s-15.038,6.746-15.038,15.039
							c0,8.292,6.746,15.038,15.038,15.038S88.742,96.914,88.742,88.622z M63.666,88.622c0-5.535,4.503-10.039,10.038-10.039
							s10.038,4.503,10.038,10.039S79.239,98.66,73.704,98.66S63.666,94.157,63.666,88.622z"/>
					</g>
				</g>
			</g>
			<g>
				<g>
					<g>
						<path class="st2" d="M197.334,88.622c0-8.292-6.746-15.039-15.038-15.039s-15.038,6.746-15.038,15.039
							c0,8.292,6.746,15.038,15.038,15.038S197.334,96.914,197.334,88.622z M172.258,88.622c0-5.535,4.503-10.039,10.038-10.039
							s10.038,4.503,10.038,10.039s-4.503,10.038-10.038,10.038S172.258,94.157,172.258,88.622z"/>
					</g>
				</g>
			</g>
		</g>
		<g>
			<g>
				<g>
					<g>
						<path class="st3" d="M142.747,69.308c1.381,0,2.5-1.119,2.5-2.5V39.385c0-1.381-1.119-2.5-2.5-2.5h-27.422
							c-1.381,0-2.5,1.119-2.5,2.5v27.423c0,1.381,1.119,2.5,2.5,2.5H142.747z M114.325,66.808V39.385c0-0.551,0.449-1,1-1h27.422
							c0.551,0,1,0.449,1,1v27.423c0,0.551-0.449,1-1,1h-27.422C114.773,67.808,114.325,67.359,114.325,66.808z"/>
						<path class="st3" d="M117.825,65.808h22.422c0.828,0,1.5-0.672,1.5-1.5V41.885c0-0.828-0.672-1.5-1.5-1.5h-22.422
							c-0.828,0-1.5,0.672-1.5,1.5v22.423C116.325,65.137,116.996,65.808,117.825,65.808z M117.825,41.885h22.422v22.423h-22.422
							V41.885z"/>
					</g>
				</g>
			</g>
			<g>
				<g>
					<g>
						<path class="st3" d="M115.359,133.67c1.381,0,2.5-1.119,2.5-2.5v-20.736c0-1.381-1.119-2.5-2.5-2.5H94.623
							c-1.381,0-2.5,1.119-2.5,2.5v20.736c0,1.381,1.119,2.5,2.5,2.5H115.359z M93.623,131.17v-20.736c0-0.551,0.449-1,1-1h20.736
							c0.551,0,1,0.449,1,1v20.736c0,0.551-0.449,1-1,1H94.623C94.072,132.17,93.623,131.722,93.623,131.17z"/>
						<path class="st3" d="M97.123,130.17h15.736c0.828,0,1.5-0.672,1.5-1.5v-15.736c0-0.828-0.672-1.5-1.5-1.5H97.123
							c-0.828,0-1.5,0.672-1.5,1.5v15.736C95.623,129.499,96.295,130.17,97.123,130.17z M97.123,112.935h15.736v15.736H97.123
							V112.935z"/>
					</g>
				</g>
			</g>
			<g>
				<g>
					<g>
						<path class="st3" d="M161.377,133.67c1.381,0,2.5-1.119,2.5-2.5v-20.736c0-1.381-1.119-2.5-2.5-2.5h-20.736
							c-1.381,0-2.5,1.119-2.5,2.5v20.736c0,1.381,1.119,2.5,2.5,2.5H161.377z M139.641,131.17v-20.736c0-0.551,0.449-1,1-1h20.736
							c0.551,0,1,0.449,1,1v20.736c0,0.551-0.449,1-1,1h-20.736C140.089,132.17,139.641,131.722,139.641,131.17z"/>
						<path class="st3" d="M143.141,130.17h15.736c0.828,0,1.5-0.672,1.5-1.5v-15.736c0-0.828-0.672-1.5-1.5-1.5h-15.736
							c-0.828,0-1.5,0.672-1.5,1.5v15.736C141.641,129.499,142.312,130.17,143.141,130.17z M143.141,112.935h15.736v15.736h-15.736
							V112.935z"/>
					</g>
				</g>
			</g>
			<g>
				<g>
					<g>
						<path class="st3" d="M88.742,88.622c0-8.292-6.746-15.039-15.038-15.039s-15.038,6.746-15.038,15.039
							c0,8.292,6.746,15.038,15.038,15.038S88.742,96.914,88.742,88.622z M60.166,88.622c0-7.465,6.073-13.539,13.538-13.539
							s13.538,6.073,13.538,13.539c0,7.465-6.073,13.538-13.538,13.538S60.166,96.086,60.166,88.622z"/>
						<path class="st3" d="M85.242,88.622c0-6.362-5.176-11.539-11.538-11.539s-11.538,5.176-11.538,11.539
							c0,6.362,5.176,11.538,11.538,11.538S85.242,94.984,85.242,88.622z M63.666,88.622c0-5.535,4.503-10.039,10.038-10.039
							s10.038,4.503,10.038,10.039S79.239,98.66,73.704,98.66S63.666,94.157,63.666,88.622z"/>
					</g>
				</g>
			</g>
			<g>
				<g>
					<g>
						<path class="st3" d="M197.334,88.622c0-8.292-6.746-15.039-15.038-15.039s-15.038,6.746-15.038,15.039
							c0,8.292,6.746,15.038,15.038,15.038S197.334,96.914,197.334,88.622z M168.758,88.622c0-7.465,6.073-13.539,13.538-13.539
							s13.538,6.073,13.538,13.539c0,7.465-6.073,13.538-13.538,13.538S168.758,96.086,168.758,88.622z"/>
						<path class="st3" d="M193.834,88.622c0-6.362-5.176-11.539-11.538-11.539s-11.538,5.176-11.538,11.539
							c0,6.362,5.176,11.538,11.538,11.538S193.834,94.984,193.834,88.622z M172.258,88.622c0-5.535,4.503-10.039,10.038-10.039
							s10.038,4.503,10.038,10.039s-4.503,10.038-10.038,10.038S172.258,94.157,172.258,88.622z"/>
					</g>
				</g>
			</g>
		</g>
		<g>
			<g>
				<g>
					<path class="st8" d="M149.101,225.49c4.143,0,7.514-3.371,7.514-7.514v-42.201c0-4.144-3.371-7.514-7.514-7.514H106.9
						c-4.144,0-7.514,3.371-7.514,7.514v42.201c0,4.144,3.371,7.514,7.514,7.514H149.101z M104.386,217.976v-42.201
						c0-1.386,1.128-2.514,2.514-2.514h42.201c1.386,0,2.514,1.128,2.514,2.514v42.201c0,1.386-1.128,2.514-2.514,2.514H106.9
						C105.514,220.49,104.386,219.362,104.386,217.976z"/>
				</g>
			</g>
		</g>
		<g>
			<g>
				<g>
					<g>
						<path class="st9" d="M149.101,221.99c2.213,0,4.014-1.801,4.014-4.014v-42.201c0-2.213-1.801-4.014-4.014-4.014H106.9
							c-2.213,0-4.014,1.801-4.014,4.014v42.201c0,2.213,1.801,4.014,4.014,4.014H149.101z M104.386,217.976v-42.201
							c0-1.386,1.128-2.514,2.514-2.514h42.201c1.386,0,2.514,1.128,2.514,2.514v42.201c0,1.386-1.128,2.514-2.514,2.514H106.9
							C105.514,220.49,104.386,219.362,104.386,217.976z"/>
						<path class="st9" d="M149.101,225.49c4.143,0,7.514-3.371,7.514-7.514v-42.201c0-4.144-3.371-7.514-7.514-7.514H106.9
							c-4.144,0-7.514,3.371-7.514,7.514v42.201c0,4.144,3.371,7.514,7.514,7.514H149.101z M100.886,217.976v-42.201
							c0-3.316,2.698-6.014,6.014-6.014h42.201c3.316,0,6.014,2.698,6.014,6.014v42.201c0,3.316-2.698,6.014-6.014,6.014H106.9
							C103.584,223.99,100.886,221.292,100.886,217.976z"/>
					</g>
				</g>
			</g>
		</g>
		<g>
			<g>
				<g>
					<path class="st4" d="M128,186.87c1.381,0,2.5-1.119,2.5-2.5s-1.119-2.5-2.5-2.5h-12.015c-1.381,0-2.5,1.119-2.5,2.5
						s1.119,2.5,2.5,2.5H128z"/>
				</g>
			</g>
		</g>
		<g>
			<g>
				<g>
					<path class="st4" d="M140.015,199.376c1.381,0,2.5-1.119,2.5-2.5s-1.119-2.5-2.5-2.5h-24.03c-1.381,0-2.5,1.119-2.5,2.5
						s1.119,2.5,2.5,2.5H140.015z"/>
				</g>
			</g>
		</g>
		<g>
			<g>
				<g>
					<path class="st4" d="M140.015,211.881c1.381,0,2.5-1.119,2.5-2.5s-1.119-2.5-2.5-2.5h-24.03c-1.381,0-2.5,1.119-2.5,2.5
						s1.119,2.5,2.5,2.5H140.015z"/>
				</g>
			</g>
		</g>
		<g>
			<g>
				<g>
					<g>
						<path class="st5" d="M128,186.87c1.381,0,2.5-1.119,2.5-2.5s-1.119-2.5-2.5-2.5h-12.015c-1.381,0-2.5,1.119-2.5,2.5
							s1.119,2.5,2.5,2.5H128z M114.985,184.37c0-0.551,0.449-1,1-1H128c0.551,0,1,0.449,1,1s-0.449,1-1,1h-12.015
							C115.433,185.37,114.985,184.922,114.985,184.37z"/>
					</g>
				</g>
			</g>
			<g>
				<g>
					<g>
						<path class="st5" d="M140.015,199.376c1.381,0,2.5-1.119,2.5-2.5s-1.119-2.5-2.5-2.5h-24.03c-1.381,0-2.5,1.119-2.5,2.5
							s1.119,2.5,2.5,2.5H140.015z M114.985,196.876c0-0.551,0.449-1,1-1h24.03c0.551,0,1,0.449,1,1s-0.449,1-1,1h-24.03
							C115.433,197.876,114.985,197.427,114.985,196.876z"/>
					</g>
				</g>
			</g>
			<g>
				<g>
					<g>
						<path class="st5" d="M140.015,211.881c1.381,0,2.5-1.119,2.5-2.5s-1.119-2.5-2.5-2.5h-24.03c-1.381,0-2.5,1.119-2.5,2.5
							s1.119,2.5,2.5,2.5H140.015z M114.985,209.381c0-0.551,0.449-1,1-1h24.03c0.551,0,1,0.449,1,1s-0.449,1-1,1h-24.03
							C115.433,210.381,114.985,209.933,114.985,209.381z"/>
					</g>
				</g>
			</g>
		</g>
	</g>
</g>
</svg>
